<?xml version="1.0" encoding="UTF-8"?>
<svg version="1.1" xmlns="http://www.w3.org/2000/svg" width="512" height="512">
<path d="M0 0 C4.13393988 0.67036863 5.8073539 -0.55882421 9.09375 -2.90625 C17.17723999 -7.54431803 27.08657589 -7.92229267 36 -6 C46.92152684 -2.06561865 53.8341358 3.86395947 58.95703125 14.1796875 C59.87253225 16.16699072 59.87253225 16.16699072 62 17 C63.88670933 17.09402206 65.7738869 17.18308393 67.66210938 17.23901367 C80.47453087 17.6528054 91.18103403 20.72853274 100.78515625 29.66015625 C106.67520908 36.01330906 108.36421414 42.24963258 108.203125 50.80078125 C108 53 108 53 107 56 C108.0725 55.87625 109.145 55.7525 110.25 55.625 C117.38386908 55.65034234 124.05828046 59.37956041 129.2890625 64.0390625 C132.19908412 67.23649367 134.20404447 69.68457843 135 74 C135.64066406 73.97679687 136.28132813 73.95359375 136.94140625 73.9296875 C142.30036265 73.81787619 146.97532318 73.88963573 152 76 C157.8557333 82.16392979 157.3171903 87.9589532 157.234375 96 C157.01706257 103.15459392 155.5925101 110.04224754 154 117 C155.299375 117.20625 156.59875 117.4125 157.9375 117.625 C165.97809126 119.44551123 172.11963061 124.02739931 176.71484375 130.82421875 C182.39924338 140.44795915 183.75998808 150.08994121 181.3046875 161.125 C176.00488106 177.15802788 162.35009664 184.29570119 148.75 192.875 C138.59863323 199.31781998 138.59863323 199.31781998 128.5625 205.9375 C122.03597893 210.3262811 115.46017026 214.63724927 108.875 218.9375 C107.76995117 219.6591333 106.66490234 220.3807666 105.52636719 221.12426758 C103.80083514 222.25107848 102.07529722 223.37788037 100.34970093 224.5045929 C94.28112557 228.4678158 88.21939385 232.44146146 82.15777588 236.41531372 C72.03507041 243.05133929 61.91044595 249.68433313 51.76123047 256.27978516 C47.00434995 259.37413135 42.26016776 262.48596482 37.53683472 265.63122559 C34.97022746 267.33943508 32.3997317 269.04174885 29.82910156 270.74389648 C28.59492377 271.56344279 27.36257201 272.3857476 26.13232422 273.21118164 C5.48319947 287.06218173 -16.62664225 296.61425339 -42.05078125 292.421875 C-49.37070509 290.97387066 -56.52203269 288.86159854 -63.6875 286.80078125 C-64.37673553 286.60353958 -65.06597107 286.40629791 -65.77609253 286.20307922 C-69.23327952 285.21260586 -72.68517623 284.20877889 -76.12939453 283.17407227 C-93.94984937 277.90410222 -111.53145524 277.62734562 -130 277.375 C-132.33595057 277.336727 -134.67188843 277.29767023 -137.0078125 277.2578125 C-142.67176045 277.16284902 -148.33578785 277.07752186 -154 277 C-153.99154053 278.10609619 -153.98308105 279.21219238 -153.97436523 280.35180664 C-154.02860725 288.07122074 -156.77722583 293.68547112 -162.03125 299.2734375 C-167.38127503 303.96532453 -173.5726942 306.10085385 -180.62573242 306.16113281 C-181.53735641 306.17074036 -182.44898041 306.1803479 -183.38822937 306.19024658 C-184.36741837 306.19449646 -185.34660736 306.19874634 -186.35546875 306.203125 C-187.37167801 306.20882507 -188.38788727 306.21452515 -189.43489075 306.22039795 C-191.58589642 306.22983964 -193.73691651 306.23637863 -195.88793945 306.24023438 C-199.15797624 306.24991262 -202.427377 306.28093308 -205.69726562 306.3125 C-207.79166295 306.31903331 -209.88606476 306.32428249 -211.98046875 306.328125 C-212.94953659 306.3404718 -213.91860443 306.3528186 -214.91703796 306.36553955 C-224.2046065 306.33548416 -231.43190435 304.40142658 -238.2734375 297.96875 C-243.23433702 292.31197769 -245.11402678 285.99196181 -245.14717102 278.58177185 C-245.15432632 277.48150162 -245.16148163 276.38123138 -245.16885376 275.24761963 C-245.17154266 274.04498474 -245.17423157 272.84234985 -245.17700195 271.60327148 C-245.18685875 269.69769218 -245.18685875 269.69769218 -245.19691467 267.75361633 C-245.2179162 263.54278823 -245.22831651 259.33195994 -245.23828125 255.12109375 C-245.2423309 253.66765894 -245.24644788 252.21422431 -245.25063133 250.76078987 C-245.26967801 243.92800574 -245.28390758 237.09523235 -245.2922433 230.26242679 C-245.30200042 222.3958091 -245.32828192 214.52947394 -245.36874419 206.6629557 C-245.39899843 200.57018222 -245.41372113 194.47748927 -245.41702431 188.38464218 C-245.41936509 184.75184422 -245.42819684 181.11934823 -245.45348549 177.48663139 C-245.48130238 173.42507321 -245.47690682 169.3641379 -245.4699707 165.30249023 C-245.48278076 164.11402496 -245.49559082 162.92555969 -245.50878906 161.70108032 C-245.45220517 152.57433184 -244.06355413 144.06899014 -237.8125 137.0625 C-230.54823935 130.62748575 -222.98098055 129.39346246 -213.53515625 129.46875 C-212.46180527 129.4649231 -211.38845428 129.46109619 -210.28257751 129.45715332 C-208.02439429 129.45444497 -205.76617911 129.46173021 -203.50805664 129.47851562 C-200.07561371 129.49991823 -196.64526877 129.47868657 -193.21289062 129.453125 C-191.00780793 129.45576888 -188.80272654 129.46089509 -186.59765625 129.46875 C-185.58381363 129.46065308 -184.56997101 129.45255615 -183.52540588 129.44421387 C-175.02124796 129.55461568 -167.67757641 131.43247331 -161.125 137.0625 C-154.08904244 144.86359715 -154 152.71591365 -154 163 C-145.09 162.67 -136.18 162.34 -127 162 C-128.505625 159.69 -130.01125 157.38 -131.5625 155 C-144.4445584 134.67702629 -153.85727346 108.4017722 -151 84 C-150.0219457 80.36459063 -148.59518259 77.94228706 -145.234375 75.95703125 C-141.71566633 74.48166718 -138.66716048 73.9621761 -134.875 73.875 C-131.0316419 73.42355144 -131.0316419 73.42355144 -129.48046875 71.15234375 C-128.51733361 69.56303811 -127.56855302 67.96496256 -126.6328125 66.359375 C-123.00642402 61.11933041 -116.93511014 58.01868166 -111 56 C-108.76171875 55.8046875 -108.76171875 55.8046875 -106.6875 55.875 C-105.470625 55.91625 -104.25375 55.9575 -103 56 C-103.165 55.505 -103.33 55.01 -103.5 54.5 C-105.00501865 46.97490675 -103.8060995 41.56020255 -100 35 C-94.07663732 26.25515391 -85.07952156 21.55664632 -75 19 C-73.33234962 18.76708221 -71.6612628 18.55808337 -69.98828125 18.3671875 C-69.09657227 18.26164551 -68.20486328 18.15610352 -67.28613281 18.04736328 C-65.49598559 17.85191695 -63.70175273 17.69037087 -61.90527344 17.56591797 C-59.37945977 17.29693395 -57.33810633 16.99982204 -55 16 C-53.06034641 13.53671499 -52.08321328 10.91850588 -51 8 C-45.43781641 -0.35855611 -37.81084859 -4.42896914 -28.1484375 -6.55859375 C-17.98591462 -7.98336433 -8.51057361 -5.67371574 0 0 Z " fill="#F6A40B" transform="translate(287,164)"/>
<path d="M0 0 C4.13393988 0.67036863 5.8073539 -0.55882421 9.09375 -2.90625 C17.17723999 -7.54431803 27.08657589 -7.92229267 36 -6 C46.92152684 -2.06561865 53.8341358 3.86395947 58.95703125 14.1796875 C59.87253225 16.16699072 59.87253225 16.16699072 62 17 C63.88670933 17.09402206 65.7738869 17.18308393 67.66210938 17.23901367 C80.47453087 17.6528054 91.18103403 20.72853274 100.78515625 29.66015625 C106.67520908 36.01330906 108.36421414 42.24963258 108.203125 50.80078125 C108 53 108 53 107 56 C108.0725 55.87625 109.145 55.7525 110.25 55.625 C117.38386908 55.65034234 124.05828046 59.37956041 129.2890625 64.0390625 C132.19908412 67.23649367 134.20404447 69.68457843 135 74 C135.64066406 73.97679687 136.28132813 73.95359375 136.94140625 73.9296875 C142.30036265 73.81787619 146.97532318 73.88963573 152 76 C157.85687719 82.16513388 157.31881542 87.96117546 157.23046875 96.00390625 C156.6703878 114.3296122 156.6703878 114.3296122 153 118 C150.58186619 118.24591191 148.16470864 118.38352211 145.73828125 118.5234375 C139.18374929 119.66416917 133.78127079 124.02384077 128.375 127.6875 C126.76172003 128.77213732 125.14843878 129.85677273 123.53515625 130.94140625 C122.75543457 131.46750488 121.97571289 131.99360352 121.17236328 132.53564453 C118.39275271 134.40933572 115.60340964 136.26819073 112.8125 138.125 C110.87497258 139.41662554 108.93747696 140.70829877 107 142 C105.90751953 142.72783691 104.81503906 143.45567383 103.68945312 144.20556641 C97.86438941 148.0868149 92.04087117 151.97028499 86.22587585 155.86660767 C83.68489563 157.56894025 81.14267198 159.26941092 78.6003418 160.96972656 C77.31562105 161.82959581 76.03144881 162.69028508 74.74780273 163.55175781 C48.03471559 181.47494319 48.03471559 181.47494319 37.21630859 181.40405273 C36.47229294 181.41091599 35.72827728 181.41777924 34.9617157 181.42485046 C32.52375747 181.44302295 30.08644832 181.43929641 27.6484375 181.43359375 C25.94405917 181.4381587 24.23968268 181.44346521 22.53530884 181.44947815 C18.97300713 181.45838933 15.41092988 181.45600722 11.84863281 181.44604492 C7.28767485 181.43453121 2.72748836 181.45481315 -1.8333683 181.48396206 C-5.34901835 181.50231619 -8.86448298 181.50203366 -12.38016891 181.49632454 C-14.06186382 181.49617137 -15.74357132 181.50221219 -17.42522049 181.51461601 C-19.77567199 181.52951779 -22.1246906 181.51885824 -24.47509766 181.50170898 C-25.51164742 181.51621094 -25.51164742 181.51621094 -26.56913757 181.53100586 C-31.29543787 181.45890581 -33.67498599 180.32731776 -37 177 C-38.57898053 173.84203893 -38.81928171 170.39329364 -38 167 C-36.34319507 164.56717402 -35.48282069 163.44381331 -33 162 C-28.9460139 161.2849312 -24.9382126 161.3984506 -20.83203125 161.46875 C-19.64204025 161.46548706 -18.45204926 161.46222412 -17.22599792 161.4588623 C-12.14306909 161.44571366 -7.06101985 161.49030121 -1.97827148 161.52978516 C1.73741371 161.55035477 5.45226027 161.54139763 9.16796875 161.53125 C10.87160835 161.56067688 10.87160835 161.56067688 12.60966492 161.59069824 C20.86646821 161.56400959 27.5513105 159.90411659 33.87712097 154.35266113 C39.36354858 148.71136274 42.16643958 141.35669506 42.5 133.5625 C42.1961161 126.16449884 39.79412131 119.84948678 35.875 113.625 C26.97543386 105.49930918 17.71855945 105.289296 6.29296875 105.44140625 C4.67930994 105.44566792 3.06564496 105.44798622 1.45198059 105.44847107 C-1.91779718 105.45460797 -5.28690286 105.47715964 -8.65649414 105.51293945 C-12.93952936 105.55809881 -17.22195663 105.57296248 -21.50520802 105.57667637 C-24.83503521 105.58114329 -28.16473941 105.59651535 -31.49451256 105.6155529 C-33.07188614 105.62432917 -34.64927232 105.63110929 -36.22666359 105.63571358 C-53.80285821 105.70868617 -73.34696364 106.57718423 -87 119 C-92.91962546 125.16725919 -95.45461187 132.35102504 -97.78417969 140.40356445 C-100.48187824 149.49982942 -105.23520275 157.05584623 -113.3125 162.3125 C-116.55214012 164.00978972 -119.42664184 164.8628178 -123.1015625 164.609375 C-127.24971864 163.27786809 -128.89947921 159.57997413 -131 156 C-131.50466797 155.18668213 -131.50466797 155.18668213 -132.01953125 154.35693359 C-141.07267649 139.75753727 -147.22917189 123.97963469 -150 107 C-150.19529297 105.82824219 -150.19529297 105.82824219 -150.39453125 104.6328125 C-150.6990809 102.41569104 -150.87704768 100.23483915 -151 98 C-151.06445312 96.87335938 -151.12890625 95.74671875 -151.1953125 94.5859375 C-151.58767471 82.16113405 -151.58767471 82.16113405 -147 77 C-143.07240398 74.67993775 -139.37960362 73.97855411 -134.875 73.875 C-131.0316419 73.42355144 -131.0316419 73.42355144 -129.48046875 71.15234375 C-128.51733361 69.56303811 -127.56855302 67.96496256 -126.6328125 66.359375 C-123.00642402 61.11933041 -116.93511014 58.01868166 -111 56 C-108.76171875 55.8046875 -108.76171875 55.8046875 -106.6875 55.875 C-105.470625 55.91625 -104.25375 55.9575 -103 56 C-103.165 55.505 -103.33 55.01 -103.5 54.5 C-105.00501865 46.97490675 -103.8060995 41.56020255 -100 35 C-94.07663732 26.25515391 -85.07952156 21.55664632 -75 19 C-73.33234962 18.76708221 -71.6612628 18.55808337 -69.98828125 18.3671875 C-69.09657227 18.26164551 -68.20486328 18.15610352 -67.28613281 18.04736328 C-65.49598559 17.85191695 -63.70175273 17.69037087 -61.90527344 17.56591797 C-59.37945977 17.29693395 -57.33810633 16.99982204 -55 16 C-53.06034641 13.53671499 -52.08321328 10.91850588 -51 8 C-45.43781641 -0.35855611 -37.81084859 -4.42896914 -28.1484375 -6.55859375 C-17.98591462 -7.98336433 -8.51057361 -5.67371574 0 0 Z " fill="#3DBB6F" transform="translate(287,164)"/>
<path d="M0 0 C1.07335098 -0.0038269 2.14670197 -0.00765381 3.25257874 -0.01159668 C5.51076196 -0.01430503 7.76897714 -0.00701979 10.02709961 0.00976562 C13.45954254 0.03116823 16.88988748 0.00993657 20.32226562 -0.015625 C22.52734832 -0.01298112 24.73242971 -0.00785491 26.9375 0 C27.95134262 -0.00809692 28.96518524 -0.01619385 30.00975037 -0.02453613 C38.42001348 0.08464673 45.98942515 1.89481046 52.41015625 7.59375 C59.47782734 15.67384806 60.1211528 25.46156612 60.03686523 35.75439453 C60.04496971 37.66632599 60.04496971 37.66632599 60.05323792 39.61688232 C60.06707645 43.07971196 60.05610704 46.54203828 60.0395267 50.00483942 C60.02556649 53.64677373 60.03214843 57.28868205 60.03565979 60.93063354 C60.03835264 67.04156505 60.02496415 73.15229909 60.00170898 79.26318359 C59.97508114 86.30869859 59.97336314 93.35388419 59.98509735 100.3994323 C59.99590775 107.20554857 59.98966409 114.01154673 59.97554207 120.81765366 C59.96981287 123.70180966 59.96984054 126.58587837 59.97460747 129.47003555 C59.98030309 133.50250164 59.96098154 137.53448322 59.93920898 141.56689453 C59.94371063 142.75155304 59.94821228 143.93621155 59.95285034 145.1567688 C59.86484045 154.99454785 58.35538522 162.51773317 51.50390625 169.8046875 C46.15388122 174.49657453 39.96246205 176.63210385 32.90942383 176.69238281 C31.99779984 176.70199036 31.08617584 176.7115979 30.14692688 176.72149658 C29.16773788 176.72574646 28.18854889 176.72999634 27.1796875 176.734375 C25.65537361 176.74292511 25.65537361 176.74292511 24.1002655 176.75164795 C21.94925983 176.76108964 19.79823974 176.76762863 17.6472168 176.77148438 C14.37718001 176.78116262 11.10777925 176.81218308 7.83789062 176.84375 C5.7434933 176.85028331 3.64909149 176.85553249 1.5546875 176.859375 C0.58561966 176.8717218 -0.38344818 176.8840686 -1.38188171 176.89678955 C-10.66945025 176.86673416 -17.8967481 174.93267658 -24.73828125 168.5 C-29.69918077 162.84322769 -31.57887053 156.52321181 -31.61201477 149.11302185 C-31.61917007 148.01275162 -31.62632538 146.91248138 -31.63369751 145.77886963 C-31.63638641 144.57623474 -31.63907532 143.37359985 -31.6418457 142.13452148 C-31.6484169 140.86413528 -31.6549881 139.59374908 -31.66175842 138.28486633 C-31.68275995 134.07403823 -31.69316026 129.86320994 -31.703125 125.65234375 C-31.70717465 124.19890894 -31.71129163 122.74547431 -31.71547508 121.29203987 C-31.73452176 114.45925574 -31.74875133 107.62648235 -31.75708705 100.79367679 C-31.76684417 92.9270591 -31.79312567 85.06072394 -31.83358794 77.1942057 C-31.86384218 71.10143222 -31.87856488 65.00873927 -31.88186806 58.91589218 C-31.88420884 55.28309422 -31.89304059 51.65059823 -31.91832924 48.01788139 C-31.94614613 43.95632321 -31.94175057 39.8953879 -31.93481445 35.83374023 C-31.94762451 34.64527496 -31.96043457 33.45680969 -31.97363281 32.23233032 C-31.91704892 23.10558184 -30.52839788 14.60024014 -24.27734375 7.59375 C-17.0130831 1.15873575 -9.4458243 -0.07528754 0 0 Z " fill="#3BBB71" transform="translate(73.46484375,293.46875)"/>
<path d="M0 0 C4.13393988 0.67036863 5.8073539 -0.55882421 9.09375 -2.90625 C17.17723999 -7.54431803 27.08657589 -7.92229267 36 -6 C46.92152684 -2.06561865 53.8341358 3.86395947 58.95703125 14.1796875 C59.87253225 16.16699072 59.87253225 16.16699072 62 17 C63.88670933 17.09402206 65.7738869 17.18308393 67.66210938 17.23901367 C80.47453087 17.6528054 91.18103403 20.72853274 100.78515625 29.66015625 C106.67520908 36.01330906 108.36421414 42.24963258 108.203125 50.80078125 C108 53 108 53 107 56 C108.0725 55.87625 109.145 55.7525 110.25 55.625 C117.38733751 55.65035466 124.01910315 59.39044354 129.2890625 64.00390625 C132.84355191 67.85825999 133.92932887 69.64664437 135 75 C47.22 75 -40.56 75 -131 75 C-127.74846933 65.24540799 -122.88603518 61.62375051 -114 57 C-111.24921116 56.08307039 -109.64051087 55.89113917 -106.8125 55.9375 C-105.554375 55.958125 -104.29625 55.97875 -103 56 C-103.165 55.505 -103.33 55.01 -103.5 54.5 C-105.00501865 46.97490675 -103.8060995 41.56020255 -100 35 C-94.07663732 26.25515391 -85.07952156 21.55664632 -75 19 C-73.33234962 18.76708221 -71.6612628 18.55808337 -69.98828125 18.3671875 C-69.09657227 18.26164551 -68.20486328 18.15610352 -67.28613281 18.04736328 C-65.49598559 17.85191695 -63.70175273 17.69037087 -61.90527344 17.56591797 C-59.37945977 17.29693395 -57.33810633 16.99982204 -55 16 C-53.06034641 13.53671499 -52.08321328 10.91850588 -51 8 C-45.43781641 -0.35855611 -37.81084859 -4.42896914 -28.1484375 -6.55859375 C-17.98591462 -7.98336433 -8.51057361 -5.67371574 0 0 Z " fill="#F2AF10" transform="translate(287,164)"/>
<path d="M0 0 C4.83878365 2.59860604 8.2950481 5.68624687 10.375 10.8125 C11.09955349 17.04177802 10.98682815 22.51515205 7.375 27.8125 C4.22945933 31.0861034 4.22945933 31.0861034 2.58203125 32.61328125 C-0.66653748 38.5321945 1.70542352 45.87161393 3.375 52 C6.94343992 66.67163995 8.15109594 83.32613812 0.375 96.8125 C-3.45719993 102.71356413 -7.73894465 108.51714822 -14.625 110.8125 C-20.59389281 111.34672104 -25.56093698 111.34556722 -30.625 107.8125 C-34.79093101 103.55188874 -37.42816101 99.80984556 -37.7265625 93.75 C-37.51242379 89.00600392 -36.42734807 86.22343398 -33.5625 82.4375 C-29.81175562 77.16838199 -29.70005069 73.12035105 -30.625 66.8125 C-31.23962497 63.98723089 -31.93634855 61.18299903 -32.625 58.375 C-36.1838372 43.7162025 -36.82418733 28.83526249 -29.26953125 15.40234375 C-22.49582969 4.52446913 -13.71580176 -4.49310747 0 0 Z " fill="#39BB71" transform="translate(258.625,43.1875)"/>
<path d="M0 0 C4.99877131 2.81748928 8.60533165 6.44099496 10.4375 11.9375 C11.24641328 18.44347398 10.57062245 22.88379106 6.81640625 28.28515625 C5.4375 29.9375 5.4375 29.9375 3.125 31.75 C0.07074117 35.7092244 0.87012726 40.15302029 1.4375 44.9375 C2.03346039 47.76760238 2.74040991 50.5683593 3.4375 53.375 C7.08439213 68.38973945 7.73004311 84.27358845 -0.328125 97.9296875 C-4.0863969 103.50790996 -8.02365285 108.68231367 -14.5625 110.9375 C-20.49856215 111.86846627 -25.53796069 111.44299255 -30.5625 107.9375 C-34.8933344 103.40980949 -37.23339671 99.84457903 -37.9375 93.625 C-37.37663068 88.10978501 -35.01649869 83.96271246 -31.8125 79.5 C-28.67827272 73.07483407 -30.91294148 65.32722062 -32.5 58.6875 C-35.72576056 44.17723177 -37.59299898 29.989007 -30.1796875 16.390625 C-23.03303 5.54980155 -13.86045984 -4.13382135 0 0 Z " fill="#39BB72" transform="translate(352.5625,43.0625)"/>
<path d="M0 0 C4.53601774 4.40350486 7.14449076 7.77662096 7.3125 14.1875 C7.23879448 21.244804 5.15964321 24.74219119 0.25 29.875 C-2.75799967 34.05277732 -2.4247118 36.99795166 -2 42 C-1.48425767 44.79458851 -0.74314315 47.50855751 0 50.25 C3.71663847 65.50829017 4.42307091 82.12909459 -3.765625 95.98828125 C-7.52092346 101.5694827 -11.46054913 106.74460545 -18 109 C-23.93606215 109.93096627 -28.97546069 109.50549255 -34 106 C-38.16593101 101.73938874 -40.80316101 97.99734556 -41.1015625 91.9375 C-40.88742379 87.19350392 -39.80234807 84.41093398 -36.9375 80.625 C-33.18717518 75.3564714 -33.07399439 71.30746444 -34 65 C-34.61521757 62.19566908 -35.31282882 59.41243269 -36 56.625 C-39.18675488 43.54341303 -41.03128601 27.11289389 -34 15 C-26.18998282 2.82032763 -14.81342668 -8.34938595 0 0 Z " fill="#39BB71" transform="translate(309,45)"/>
</svg>
